Coordinates
version=1
nRows=25
nColumns=28
inDegrees=yes

Units are S.I. units (second, meters, Newtons, ...)
Angles are in degrees.

endheader
time	pelvis_tilt	pelvis_list	pelvis_rotation	pelvis_tx	pelvis_ty	pelvis_tz	hip_flexion_r	hip_adduction_r	hip_rotation_r	knee_angle_r	ankle_angle_r	subtalar_angle_r	mtp_angle_r	hip_flexion_l	hip_adduction_l	hip_rotation_l	knee_angle_l	socket_flexion	socket_adduction	socket_rotation	socket_tx	socket_ty	socket_tz	foot_flex	lumbar_extension	lumbar_bending	lumbar_rotation
      0.96666667	      6.58844514	     -0.49185516	     -4.47510308	      0.39694045	      1.02435397	      0.27870725	      2.24593307	      4.70336381	      0.20080426	    -24.39590580	     10.97742552	     -2.22250291	     33.22066098	     -0.47808345	     -3.75779815	     -3.96594976	    -56.89063960	     -5.32160771	      0.00000000	      0.00000000	      0.00000000	      0.00000000	      0.00000000	      3.67894203	    -13.83428919	      1.35592066	     10.36301747
      0.97083333	      6.59618278	     -0.16945997	     -4.87723587	      0.40184413	      1.02554994	      0.27947618	      1.78587247	      4.25672388	      0.30444905	    -24.02697712	     10.79079666	     -1.12991940	     33.60299068	     -0.09816665	     -3.41555985	     -4.03829087	    -56.13211864	     -5.06204292	      0.00000000	      0.00000000	      0.00000000	      0.00000000	      0.00000000	      3.71124394	    -13.73187689	      0.83219143	     11.05190471
      0.97500000	      6.60831575	     -0.05459088	     -5.11782578	      0.40619755	      1.02640249	      0.27992441	      1.38226470	      4.05361628	      0.34447661	    -23.76726276	     10.82581504	     -0.83110166	     33.73382725	      0.47710942	     -3.31202798	     -3.93385826	    -55.87217485	     -5.13741466	      0.00000000	      0.00000000	      0.00000000	      0.00000000	      0.00000000	      3.67458832	    -13.79300259	      0.62918641	     11.19535049
      0.97916667	      6.66967974	      0.20011129	     -5.49194543	      0.41078856	      1.02737234	      0.28042096	      1.07314995	      3.58567015	      0.04069479	    -23.76598728	     10.88200444	      0.55924223	     34.79374856	      0.85044516	     -3.01182914	     -3.92809289	    -55.20336010	     -4.98480493	      0.00000000	      0.00000000	      0.00000000	      0.00000000	      0.00000000	      3.70056826	    -13.84248789	      0.23396239	     11.74564876
      0.98333333	      6.69859836	      0.18693339	     -5.76120784	      0.41495942	      1.02808581	      0.28087170	      0.76289694	      3.51043325	     -0.01107911	    -23.73639398	     10.87602263	      0.58131579	     34.80299612	      1.39538053	     -3.05002653	     -3.85711441	    -54.93392292	     -5.10194732	      0.00000000	      0.00000000	      0.00000000	      0.00000000	      0.00000000	      3.71516153	    -13.94975934	      0.21196642	     11.75295077
      0.98750000	      6.58844706	      0.32371681	     -5.93495025	      0.41966887	      1.02896157	      0.28127550	      0.30752605	      3.32494184	      0.18715713	    -23.12139424	     10.73708859	      0.90810445	     34.87882024	      1.99358726	     -2.90549893	     -3.62021753	    -54.30284888	     -5.00030615	      0.00000000	      0.00000000	      0.00000000	      0.00000000	      0.00000000	      3.63117368	    -13.79286931	      0.00522443	     11.88807599
      0.99166667	      6.61338681	      0.52595022	     -6.35801933	      0.42416021	      1.02981171	      0.28192543	      0.00081286	      2.96057295	      0.12985428	    -23.02726258	     10.55755465	      1.70734673	     35.66909707	      2.36502600	     -2.67405479	     -3.63762201	    -53.50799010	     -4.83461242	      0.00000000	      0.00000000	      0.00000000	      0.00000000	      0.00000000	      3.69328179	    -13.79809314	     -0.33996017	     12.41561338
      0.99583333	      6.55638004	      0.54847348	     -6.56432039	      0.42852908	      1.03052005	      0.28233835	     -0.35283473	      2.87670778	      0.19801908	    -22.71977049	     10.46854065	      1.88068492	     35.73610901	      2.92538463	     -2.65645912	     -3.43221581	    -52.94724641	     -4.81802689	      0.00000000	      0.00000000	      0.00000000	      0.00000000	      0.00000000	      3.64901931	    -13.76710625	     -0.41163121	     12.46683483
      1.00000000	      6.49461953	      0.58572283	     -6.80312866	      0.43293208	      1.03118010	      0.28276019	     -0.69429660	      2.76620674	      0.27265337	    -22.41961213	     10.34967747	      2.09478756	     35.80918599	      3.45636127	     -2.61707125	     -3.24749084	    -52.29886011	     -4.76779269	      0.00000000	      0.00000000	      0.00000000	      0.00000000	      0.00000000	      3.64857665	    -13.72016912	     -0.49474193	     12.57583707
      1.00416667	      6.43242613	      0.63653936	     -7.05865438	      0.43733412	      1.03181316	      0.28325428	     -1.02738864	      2.64425115	      0.35911256	    -22.13054001	     10.22056580	      2.34349764	     35.90047729	      3.96173328	     -2.56511572	     -3.06720028	    -51.58444029	     -4.70191333	      0.00000000	      0.00000000	      0.00000000	      0.00000000	      0.00000000	      3.64384245	    -13.66447512	     -0.62449525	     12.72862026
      1.00833333	      6.36978713	      0.71660727	     -7.33324557	      0.44172736	      1.03238967	      0.28373242	     -1.34544076	      2.47719290	      0.44064512	    -21.84858132	     10.07628194	      2.63815315	     36.03656993	      4.45127250	     -2.48240009	     -2.93609772	    -50.81090480	     -4.61058411	      0.00000000	      0.00000000	      0.00000000	      0.00000000	      0.00000000	      3.67088650	    -13.61536296	     -0.76179279	     12.94447102
      1.01250000	      6.38818144	      0.66248620	     -7.62169896	      0.44565580	      1.03269919	      0.28422421	     -1.60228393	      2.43297458	      0.39035414	    -21.86186931	     10.07531957	      2.65974723	     36.04784785	      4.97150565	     -2.56314268	     -2.80865154	    -50.41878083	     -4.79604210	      0.00000000	      0.00000000	      0.00000000	      0.00000000	      0.00000000	      3.68442130	    -13.75116289	     -0.79589209	     12.95969416
      1.01666667	      6.24931848	      0.67777361	     -7.80288847	      0.45009660	      1.03335420	      0.28455865	     -1.93199635	      2.38575010	      0.59303091	    -21.43341432	      9.98680949	      2.98681619	     36.14824623	      5.47127771	     -2.51947336	     -2.44949624	    -49.35975226	     -4.53324692	      0.00000000	      0.00000000	      0.00000000	      0.00000000	      0.00000000	      3.56466921	    -13.59314965	     -0.81669399	     13.18201916
      1.02083333	      6.15348496	      0.72005388	     -8.04724402	      0.45447326	      1.03380009	      0.28498230	     -2.24039063	      2.27311407	      0.71198868	    -21.10901101	      9.85906043	      3.25190804	     36.24059222	      5.95118267	     -2.47086420	     -2.22426651	    -48.46125444	     -4.41302660	      0.00000000	      0.00000000	      0.00000000	      0.00000000	      0.00000000	      3.59169577	    -13.50153952	     -0.91376137	     13.37657736
      1.02500000	      6.08226644	      0.72337517	     -8.29923559	      0.45861410	      1.03416031	      0.28546297	     -2.51174933	      2.19766459	      0.79568774	    -20.89549214	      9.76041772	      3.46469568	     36.33218162	      6.42629775	     -2.47722750	     -1.99991784	    -47.59796015	     -4.31383488	      0.00000000	      0.00000000	      0.00000000	      0.00000000	      0.00000000	      3.56740042	    -13.47129822	     -0.99382638	     13.54600901
      1.02916667	      5.97027124	      0.80078310	     -8.54370589	      0.46300597	      1.03449917	      0.28602692	     -2.80511910	      2.06055735	      0.90852910	    -20.55206021	      9.61162154	      3.74398983	     36.48560688	      6.88064358	     -2.42166832	     -1.81598731	    -46.58885485	     -4.14744030	      0.00000000	      0.00000000	      0.00000000	      0.00000000	      0.00000000	      3.62777718	    -13.35061764	     -1.17802170	     13.78543151
      1.03333333	      5.89403020	      0.76462907	     -8.76337327	      0.46699224	      1.03474590	      0.28643641	     -3.03782347	      2.03630392	      0.98669239	    -20.40982392	      9.55643762	      3.90427476	     36.59320752	      7.35613800	     -2.47186452	     -1.55238591	    -45.69743044	     -4.05501216	      0.00000000	      0.00000000	      0.00000000	      0.00000000	      0.00000000	      3.56504253	    -13.35390194	     -1.19809071	     13.93025018
      1.03750000	      5.80145262	      0.88686147	     -9.06652692	      0.47119710	      1.03503354	      0.28706969	     -3.27256042	      1.83013415	      1.11833758	    -20.18155451	      9.33112072	      4.15189302	     36.98615737	      7.73835875	     -2.37182886	     -1.38838932	    -44.49730952	     -3.79675791	      0.00000000	      0.00000000	      0.00000000	      0.00000000	      0.00000000	      3.58611548	    -13.25616105	     -1.42902157	     14.24353258
      1.04166667	      5.67209921	      0.82703570	     -9.20420947	      0.47531280	      1.03516555	      0.28740027	     -3.53681010	      1.86216891	      1.22012840	    -19.88567261	      9.31410157	      4.29128240	     37.14110104	      8.23181302	     -2.45158376	     -1.03751771	    -43.51767052	     -3.65551837	      0.00000000	      0.00000000	      0.00000000	      0.00000000	      0.00000000	      3.59095120	    -13.17967305	     -1.40426196	     14.34684366
      1.04583333	      5.56203812	      0.73583922	     -9.35504072	      0.47915024	      1.03523662	      0.28769889	     -3.73970235	      1.91446860	      1.29708366	    -19.73857147	      9.27949707	      4.37771511	     37.21901534	      8.72468825	     -2.57100189	     -0.70470141	    -42.55888975	     -3.53810898	      0.00000000	      0.00000000	      0.00000000	      0.00000000	      0.00000000	      3.50909215	    -13.17915845	     -1.33994606	     14.41835588
      1.05000000	      5.42764801	      0.66003009	     -9.48428372	      0.48302709	      1.03528028	      0.28804080	     -3.94500405	      1.96906100	      1.39721274	    -19.53920415	      9.23998773	      4.46491303	     37.28082022	      9.21121145	     -2.68093479	     -0.34307228	    -41.50957155	     -3.36625668	      0.00000000	      0.00000000	      0.00000000	      0.00000000	      0.00000000	      3.45950936	    -13.13705130	     -1.28470450	     14.49060121
      1.05416667	      5.25296627	      0.61242726	     -9.60446831	      0.48702690	      1.03527812	      0.28842534	     -4.14787689	      2.01084000	      1.50349420	    -19.26191624	      9.17443796	      4.53368223	     37.33707663	      9.69707115	     -2.76994823	      0.01382064	    -40.34360433	     -3.11187006	      0.00000000	      0.00000000	      0.00000000	      0.00000000	      0.00000000	      3.45677324	    -13.02974169	     -1.27102193	     14.55762537
      1.05833333	      5.04894852	      0.75274051	     -9.79052944	      0.49118424	      1.03528117	      0.28904213	     -4.31931112	      1.85565004	      1.72253793	    -18.92677836	      8.90977098	      4.36994905	     37.49585556	     10.09652812	     -2.69059736	      0.25787537	    -38.81801034	     -2.63937446	      0.00000000	      0.00000000	      0.00000000	      0.00000000	      0.00000000	      3.53326153	    -12.80358892	     -1.51040647	     14.62161748
      1.06250000	      4.89048680	      1.10806997	     -9.89340279	      0.49457079	      1.03587748	      0.28996267	     -4.42193413	      1.53863707	      1.97546971	    -18.67987544	      8.72912764	      3.98331892	     37.61652485	     10.25515729	     -2.42327047	      0.45725820	    -36.36212998	     -1.48298921	      0.00000000	      0.00000000	      0.00000000	      0.00000000	      0.00000000	      3.54511616	    -12.70586275	     -2.03299673	     14.53696073
      1.06666667	      4.79755403	      0.90335890	    -10.02901945	      0.49848445	      1.03564416	      0.29014857	     -4.67962232	      1.70704687	      2.07543744	    -18.52233621	      8.78371686	      4.07990428	     37.67441479	     10.70205484	     -2.66481490	      0.85771144	    -35.46869328	     -1.46483212	      0.00000000	      0.00000000	      0.00000000	      0.00000000	      0.00000000	      3.42660549	    -12.74424335	     -1.82850578	     14.64567202
